<?xml version="1.0" encoding="UTF-8" standalone="no"?>
<svg width="35px" height="50px" viewBox="0 0 35 50" version="1.1" xmlns="http://www.w3.org/2000/svg" xmlns:xlink="http://www.w3.org/1999/xlink" xmlns:sketch="http://www.bohemiancoding.com/sketch/ns">
    <!-- Generator: Sketch 3.4.4 (17249) - http://www.bohemiancoding.com/sketch -->
    <title>css3</title>
    <desc>Created with Sketch.</desc>
    <defs></defs>
    <g id="Page-1" stroke="none" stroke-width="1" fill="none" fill-rule="evenodd" sketch:type="MSPage">
        <g id="Main-Art" sketch:type="MSArtboardGroup" transform="translate(-156.000000, -14.000000)">
            <g id="css3" sketch:type="MSLayerGroup" transform="translate(156.000000, 14.000000)">
                <g id="Slice-1" sketch:type="MSShapeGroup">
                    <g id="Page-1">
                        <g id="Layer_1">
                            <path d="M27.3850336,1.86235154 L24.4854362,1.86235154 L27.5008389,5.17102138 L27.5008389,6.745962 L21.2898658,6.745962 L21.2898658,4.902019 L24.3046812,4.902019 L21.2898658,1.5932304 L21.2898658,0.0160332542 L27.3850336,0.0160332542 L27.3850336,1.86235154 L27.3850336,1.86235154 L27.3850336,1.86235154 Z M20.0587584,1.86235154 L17.1591611,1.86235154 L20.1744463,5.17102138 L20.1744463,6.745962 L13.9634732,6.745962 L13.9634732,4.902019 L16.9786409,4.902019 L13.9634732,1.5932304 L13.9634732,0.0160332542 L20.0587584,0.0160332542 L20.0587584,1.86235154 L20.0587584,1.86235154 L20.0587584,1.86235154 Z M12.8041275,1.93729216 L9.67526846,1.93729216 L9.67526846,4.82482185 L12.8041275,4.82482185 L12.8041275,6.745962 L7.45147651,6.745962 L7.45147651,0.0160332542 L12.8041275,0.0160332542 L12.8041275,1.93729216 L12.8041275,1.93729216 L12.8041275,1.93729216 Z" id="Shape" fill="#131313"></path>
                            <path d="M3.18781879,45.8776722 L0.00833892617,9.81828979 L34.9437416,9.81828979 L31.7613255,45.8718527 L17.4546644,49.8825416 L3.18781879,45.8776722 L3.18781879,45.8776722 Z" id="Shape" fill="#1572B6"></path>
                            <path d="M17.4762752,46.8169834 L29.0364933,43.5761283 L31.7562752,12.7667458 L17.4762752,12.7667458 L17.4762752,46.8169834 L17.4762752,46.8169834 Z" id="Shape" fill="#33A9DC"></path>
                            <g id="Group" transform="translate(6.459732, 16.864608)">
                                <path d="M11.0164262,8.96627078 L16.8037584,8.96627078 L17.2034396,4.43752969 L11.0164262,4.43752969 L11.0164262,0.0148456057 L11.0315772,0.0148456057 L21.9832886,0.0148456057 L21.878406,1.20142518 L20.8035067,13.3885986 L11.0164262,13.3885986 L11.0164262,8.96627078 L11.0164262,8.96627078 Z" id="Shape" fill="#FFFFFF"></path>
                                <path d="M11.0426174,20.4517815 L11.0234732,20.4572447 L6.15260067,19.1271971 L5.84112416,15.6001188 L3.47439597,15.6001188 L1.45097315,15.6001188 L2.0635906,22.543943 L11.0224161,25.0589074 L11.0426174,25.0532067 L11.0426174,20.4517815 L11.0426174,20.4517815 Z" id="Shape" fill="#EBEBEB"></path>
                                <path d="M16.4320302,13.2014252 L15.9053859,19.124228 L11.0274664,20.4555819 L11.0274664,25.0567696 L19.9934564,22.543943 L20.0592282,21.7969121 L20.8200671,13.2014252 L16.4320302,13.2014252 L16.4320302,13.2014252 Z" id="Shape" fill="#FFFFFF"></path>
                                <path d="M11.0315772,0.0148456057 L11.0315772,2.76163895 L11.0315772,4.42660333 L11.0315772,4.43752969 L0.481308725,4.43752969 L0.467332215,4.43752969 L0.379597315,3.44346793 L0.180285235,1.20142518 L0.0757550336,0.0148456057 L11.0315772,0.0148456057 L11.0315772,0.0148456057 Z" id="Shape" fill="#EBEBEB"></path>
                                <path d="M11.0164262,8.96674584 L11.0164262,11.713658 L11.0164262,13.3783848 L11.0164262,13.3893112 L6.22119128,13.3893112 L6.20721477,13.3893112 L6.11959732,12.3953682 L5.92016779,10.1533254 L5.81563758,8.96674584 L11.0164262,8.96674584 L11.0164262,8.96674584 Z" id="Shape" fill="#EBEBEB"></path>
                            </g>
                        </g>
                    </g>
                </g>
            </g>
        </g>
    </g>
</svg>