<?xml version="1.0" encoding="UTF-8" standalone="no"?>
<svg width="12px" height="18px" viewBox="0 0 12 18" version="1.1" xmlns="http://www.w3.org/2000/svg" xmlns:xlink="http://www.w3.org/1999/xlink" xmlns:sketch="http://www.bohemiancoding.com/sketch/ns">
    <!-- Generator: Sketch 3.4.4 (17249) - http://www.bohemiancoding.com/sketch -->
    <title>css3</title>
    <desc>Created with Sketch.</desc>
    <defs></defs>
    <g id="Page-1" stroke="none" stroke-width="1" fill="none" fill-rule="evenodd" sketch:type="MSPage">
        <g id="Alt-Art" sketch:type="MSArtboardGroup" transform="translate(-108.000000, -18.000000)">
            <g id="css3" sketch:type="MSLayerGroup" transform="translate(108.000000, 18.000000)">
                <g id="Slice-1" sketch:type="MSShapeGroup">
                    <g id="Page-1">
                        <g id="Layer_1">
                            <path d="M9.38915436,0.670446556 L8.39500671,0.670446556 L9.42885906,1.8615677 L9.42885906,2.42854632 L7.29938255,2.42854632 L7.29938255,1.76472684 L8.33303356,1.76472684 L7.29938255,0.573562945 L7.29938255,0.0057719715 L9.38915436,0.0057719715 L9.38915436,0.670446556 L9.38915436,0.670446556 L9.38915436,0.670446556 Z M6.87728859,0.670446556 L5.88314094,0.670446556 L6.91695302,1.8615677 L6.91695302,2.42854632 L4.78747651,2.42854632 L4.78747651,1.76472684 L5.82124832,1.76472684 L4.78747651,0.573562945 L4.78747651,0.0057719715 L6.87728859,0.0057719715 L6.87728859,0.670446556 L6.87728859,0.670446556 L6.87728859,0.670446556 Z M4.38998658,0.697425178 L3.3172349,0.697425178 L3.3172349,1.73693587 L4.38998658,1.73693587 L4.38998658,2.42854632 L2.55479195,2.42854632 L2.55479195,0.0057719715 L4.38998658,0.0057719715 L4.38998658,0.697425178 L4.38998658,0.697425178 L4.38998658,0.697425178 Z" id="Shape" fill="#FFFFFF"></path>
                            <path d="M1.09296644,16.515962 L0.0028590604,3.53458432 L11.9807114,3.53458432 L10.8895973,16.513867 L5.98445638,17.957715 L1.09296644,16.515962 L1.09296644,16.515962 Z" id="Shape" fill="#1572B6"></path>
                            <path d="M5.99186577,16.854114 L9.95536913,15.6874062 L10.8878658,4.5960285 L5.99186577,4.5960285 L5.99186577,16.854114 L5.99186577,16.854114 Z" id="Shape" fill="#33A9DC"></path>
                            <g id="Group" transform="translate(2.214765, 6.071259)">
                                <path d="M3.7770604,3.22785748 L5.76128859,3.22785748 L5.89832215,1.59751069 L3.7770604,1.59751069 L3.7770604,0.00534441805 L3.78225503,0.00534441805 L7.53712752,0.00534441805 L7.50116779,0.432513064 L7.13263087,4.81989549 L3.7770604,4.81989549 L3.7770604,3.22785748 L3.7770604,3.22785748 Z" id="Shape" fill="#FFFFFF"></path>
                                <path d="M3.78604027,7.36264133 L3.77947651,7.36460808 L2.10946309,6.88579097 L2.00267114,5.61604276 L1.19122148,5.61604276 L0.49747651,5.61604276 L0.707516779,8.11581948 L3.77911409,9.02120665 L3.78604027,9.01915439 L3.78604027,7.36264133 L3.78604027,7.36264133 Z" id="Shape" fill="#EBEBEB"></path>
                                <path d="M5.63383893,4.75251306 L5.45327517,6.88472209 L3.78084564,7.3640095 L3.78084564,9.02043705 L6.85489933,8.11581948 L6.87744966,7.84688836 L7.13830872,4.75251306 L5.63383893,4.75251306 L5.63383893,4.75251306 Z" id="Shape" fill="#FFFFFF"></path>
                                <path d="M3.78225503,0.00534441805 L3.78225503,0.994190024 L3.78225503,1.5935772 L3.78225503,1.59751069 L0.165020134,1.59751069 L0.160228188,1.59751069 L0.130147651,1.23964846 L0.0618120805,0.432513064 L0.0259731544,0.00534441805 L3.78225503,0.00534441805 L3.78225503,0.00534441805 Z" id="Shape" fill="#EBEBEB"></path>
                                <path d="M3.7770604,3.2280285 L3.7770604,4.21691686 L3.7770604,4.81621853 L3.7770604,4.82015202 L2.13297987,4.82015202 L2.12818792,4.82015202 L2.09814765,4.46233254 L2.02977181,3.65519715 L1.99393289,3.2280285 L3.7770604,3.2280285 L3.7770604,3.2280285 Z" id="Shape" fill="#EBEBEB"></path>
                            </g>
                        </g>
                    </g>
                </g>
            </g>
        </g>
    </g>
</svg>