<?xml version="1.0" encoding="UTF-8" standalone="no"?>
<svg width="14px" height="14px" viewBox="0 0 14 14" version="1.1" xmlns="http://www.w3.org/2000/svg" xmlns:xlink="http://www.w3.org/1999/xlink" xmlns:sketch="http://www.bohemiancoding.com/sketch/ns">
    <!-- Generator: Sketch 3.4.4 (17249) - http://www.bohemiancoding.com/sketch -->
    <title>npmwombat</title>
    <desc>Created with Sketch.</desc>
    <defs>
        <radialGradient cx="49.9996712%" cy="49.999826%" fx="49.9996712%" fy="49.999826%" r="43.3311688%" id="radialGradient-1">
            <stop stop-color="#1B91CC" offset="0%"></stop>
            <stop stop-color="#FFFFFF" stop-opacity="0" offset="100%"></stop>
        </radialGradient>
    </defs>
    <g id="Page-1" stroke="none" stroke-width="1" fill="none" fill-rule="evenodd" sketch:type="MSPage">
        <g id="Alt-Art" sketch:type="MSArtboardGroup" transform="translate(-391.000000, -23.000000)">
            <g id="npmwombat" sketch:type="MSLayerGroup" transform="translate(391.000000, 23.000000)">
                <g id="npm-wombat-coding-stages" sketch:type="MSShapeGroup">
                    <g id="Page-1">
                        <g id="npm-wombat-coding-stages">
                            <g id="Layer_2">
                                <g id="wombat_1_">
                                    <g id="body_5_" transform="translate(0.556818, 5.538835)">
                                        <path d="M10.7399091,2.88518932 C9.83690909,1.27685437 7.9891875,0.00988834951 5.82344318,0.00985436893 C3.65781818,0.00988834951 1.81009659,1.27685437 0.907056818,2.88512136 C0.00405681818,4.49349029 0.00318181818,6.42042718 0.00318181818,6.42042718 C1.97030114,7.55687379 5.82344318,7.64726214 5.82344318,7.64726214 C5.82344318,7.64726214 9.67734091,7.5566699 11.6437841,6.42042718 C11.6437841,6.42046117 11.6429091,4.49349029 10.7399091,2.88518932 L10.7399091,2.88518932 L10.7399091,2.88518932 Z" id="body_6_" fill="#986844"></path>
                                        <g id="body_shadow_2_" transform="translate(0.000000, 1.631068)" fill="#895D3D">
                                            <path d="M2.36524432,5.6080534 C0.124090909,3.87735437 1.51744886,0.79626699 1.51744886,0.79626699 L2.16665909,0.0245339806 C2.16665909,0.0245339806 1.94794886,0.0860048544 1.74093182,0.137621359 C1.41157386,0.479567961 1.13038068,0.85634466 0.907096591,1.25408738 C0.0657840909,2.75252913 0.00755681818,4.52726699 0.00353977273,4.76278641 L0.00353977273,4.76411165 C0.0035,4.76703398 0.00346022727,4.76968447 0.00342045455,4.77206311 L0.00342045455,4.77352427 C0.00342045455,4.77563107 0.00338068182,4.77753398 0.00338068182,4.77923301 L0.00338068182,4.78157767 L0.00338068182,4.78463592 L0.00338068182,4.78674272 L0.00338068182,4.78929126 C0.653545455,5.16515049 1.51001136,5.42649515 2.36524432,5.6080534 L2.36524432,5.6080534 L2.36524432,5.6080534 L2.36524432,5.6080534 Z" id="Shape"></path>
                                            <path d="M9.28263636,5.6080534 C11.52375,3.87735437 10.1304716,0.79626699 10.1304716,0.79626699 L9.48122159,0.0245 C9.48122159,0.0245 9.69997159,0.0860048544 9.90690909,0.137587379 C10.2363068,0.479533981 10.5175,0.85631068 10.7408239,1.25401942 C11.5820966,2.75252913 11.6403239,4.52726699 11.6443409,4.76275243 L11.6443409,4.76407767 C11.6444205,4.767 11.6444602,4.76965049 11.6445,4.77202913 C11.6445,4.77257282 11.6445398,4.77304854 11.6445398,4.77349029 C11.6445795,4.77559709 11.6445795,4.7775 11.6445795,4.77919903 C11.6445795,4.78008252 11.6446193,4.78079612 11.6446193,4.78157767 C11.6446193,4.78266505 11.6446193,4.78368447 11.6446591,4.78460194 L11.6446591,4.78670874 L11.6446591,4.78925728 C10.9943352,5.16515049 10.1378693,5.42649515 9.28263636,5.6080534 L9.28263636,5.6080534 L9.28263636,5.6080534 L9.28263636,5.6080534 Z" id="Shape"></path>
                                        </g>
                                    </g>
                                    <g id="npm_-_wombat_-_face_2_" transform="translate(0.477273, 0.000000)">
                                        <g id="ears_2_" transform="translate(2.267045, 0.000000)">
                                            <g id="ear_6_" transform="translate(5.767045, 0.000000)">
                                                <path d="M0.800664773,0.0322475728 L0.0140397727,0.474742718 L0.422545455,1.22792233 L1.47246591,1.47050971 C1.47242614,1.47054369 1.31496591,0.660990291 0.800664773,0.0322475728 L0.800664773,0.0322475728 L0.800664773,0.0322475728 Z" id="Shape" fill="#986844"></path>
                                                <path d="M0.10675,0.645800971 L0.0140397727,0.47481068 L0.800664773,0.0322475728 L0.579011364,0.849140777 L0.10675,0.645800971 L0.10675,0.645800971 Z" id="Shape" fill="#895D3D"></path>
                                            </g>
                                            <g id="ear_5_">
                                                <path d="M0.705130682,0.0322475728 L1.49179545,0.474742718 L1.08328977,1.22792233 L0.0333295455,1.47050971 C0.0333693182,1.47054369 0.190789773,0.660990291 0.705130682,0.0322475728 L0.705130682,0.0322475728 L0.705130682,0.0322475728 Z" id="Shape" fill="#986844"></path>
                                                <path d="M1.399125,0.645800971 L1.49183523,0.47481068 L0.705130682,0.0322475728 L0.926863636,0.849140777 L1.399125,0.645800971 L1.399125,0.645800971 Z" id="Shape" fill="#895D3D"></path>
                                            </g>
                                        </g>
                                        <path d="M10.88325,3.1736165 C9.96851705,1.40540291 8.09685227,0.0124368932 5.90314773,0.0124368932 C3.70944318,0.0124368932 1.83777841,1.40540291 0.923005682,3.1736165 C0.0083125,4.9418301 0.0074375,7.06041748 0.0074375,7.06041748 C1.67542614,8.97780583 5.90314773,8.95802913 5.90314773,8.95802913 C5.90314773,8.95802913 10.13075,8.97780583 11.7987386,7.06041748 C11.7987784,7.0603835 11.7979034,4.9418301 10.88325,3.1736165 L10.88325,3.1736165 L10.88325,3.1736165 Z" id="head_3_" fill="#986844"></path>
                                        <g id="nose_4_" transform="translate(4.136364, 6.218447)">
                                            <ellipse id="nose_9_" fill="#895D3D" cx="1.76678409" cy="0.870276699" rx="1.73409091" ry="0.716718447"></ellipse>
                                            <ellipse id="nose_5_" fill="#000000" cx="1.76678409" cy="0.731669903" rx="1.73409091" ry="0.716684466"></ellipse>
                                        </g>
                                        <g id="face_2_" transform="translate(3.380682, 5.572816)">
                                            <g id="eyes_2_">
                                                <g id="eye_4_">
                                                    <path d="M0.773460227,0.339669903 C0.773460227,0.517796117 0.604426136,0.662145631 0.3959375,0.662145631 C0.187488636,0.662145631 0.0184147727,0.517796117 0.0184147727,0.339669903 C0.0184147727,0.161543689 0.187448864,0.0171601942 0.3959375,0.0171601942 C0.604465909,0.0171601942 0.773460227,0.161509709 0.773460227,0.339669903 L0.773460227,0.339669903 L0.773460227,0.339669903 Z" id="Shape" fill="#B78563"></path>
                                                    <ellipse id="Oval" fill="#000000" cx="0.4676875" cy="0.398592233" rx="0.282585227" ry="0.241432039"></ellipse>
                                                    <ellipse id="Oval" fill="#FFFFFF" cx="0.492267045" cy="0.47015534" rx="0.0913579545" ry="0.0780533981"></ellipse>
                                                </g>
                                                <g id="eye_3_" transform="translate(4.255682, 0.000000)">
                                                    <path d="M0.0341647727,0.339669903 C0.0341647727,0.517796117 0.203198864,0.662145631 0.4116875,0.662145631 C0.620136364,0.662145631 0.789210227,0.517796117 0.789210227,0.339669903 C0.789210227,0.161543689 0.620096591,0.0171601942 0.4116875,0.0171601942 C0.203198864,0.0171601942 0.0341647727,0.161509709 0.0341647727,0.339669903 L0.0341647727,0.339669903 L0.0341647727,0.339669903 Z" id="Shape" fill="#B78563"></path>
                                                    <ellipse id="Oval" fill="#000000" cx="0.3399375" cy="0.398592233" rx="0.282585227" ry="0.241432039"></ellipse>
                                                    <ellipse id="Oval" fill="#FFFFFF" cx="0.315397727" cy="0.47015534" rx="0.0913579545" ry="0.0780533981"></ellipse>
                                                </g>
                                            </g>
                                        </g>
                                        <path d="M1.0495625,7.00380583 C1.0495625,7.00380583 1.59492614,7.81067476 2.38703977,8.43894175 C1.47469318,8.15836408 0.5866875,7.72616505 0.00747727273,7.06034951 C0.00747727273,7.06034951 0.00835227273,4.94172816 0.923045455,3.17351456 C1.51975568,2.01997573 2.52385795,1.02631553 3.75888068,0.474708738 C3.70459091,0.503966019 0.966238636,2.00169417 1.0495625,7.00380583 L1.0495625,7.00380583 L1.0495625,7.00380583 Z M10.7574091,7.00380583 C10.7574091,7.00380583 10.2120852,7.81067476 9.41989205,8.43894175 C10.3322784,8.15839806 11.2202443,7.72616505 11.7994943,7.06034951 C11.7994943,7.06034951 11.7986591,4.94176214 10.8839261,3.17354854 C10.2871364,2.01997573 9.28311364,1.02631553 8.04809091,0.474742718 C8.10238068,0.503966019 10.840733,2.00169417 10.7574091,7.00380583 L10.7574091,7.00380583 L10.7574091,7.00380583 Z" id="shadow_9_" fill="#895D3D"></path>
                                    </g>
                                    <g id="Group" transform="translate(0.517045, 7.339806)">
                                        <g id="Shape">
                                            <path d="M5.07675,1.63735437 C5.07675,1.63735437 1.95797159,-0.887334951 0.479698864,0.363354369 C-0.604982955,1.28110194 0.558568182,2.43980583 1.22054545,2.56808252 C2.8175,2.87761165 4.40232386,2.20802427 5.07675,1.63735437 L5.07675,1.63735437 L5.07675,1.63735437 Z" fill="#986844"></path>
                                            <path d="M5.07675,1.63735437 C5.07675,1.63735437 1.39017614,2.49835437 0.0779943182,1.48773786 L0.0779943182,1.48773786 C0.237761364,2.03703398 0.820670455,2.49064078 1.22054545,2.5681165 C2.8175,2.87761165 4.40232386,2.20802427 5.07675,1.63735437 L5.07675,1.63735437 L5.07675,1.63735437 Z" opacity="0.1" fill="#000000"></path>
                                        </g>
                                        <g id="Shape" transform="translate(6.642045, 0.000000)">
                                            <path d="M3.86479545,2.56804854 C4.5268125,2.43980583 5.69028409,1.28106796 4.60564205,0.363320388 C3.12736932,-0.887368932 0.00863068182,1.63732039 0.00863068182,1.63732039 C0.683056818,2.20802427 2.26788068,2.87761165 3.86479545,2.56804854 L3.86479545,2.56804854 L3.86479545,2.56804854 Z" fill="#986844"></path>
                                            <path d="M3.86479545,2.56808252 C4.26471023,2.49057282 4.84761932,2.037 5.00738636,1.48770388 L5.00738636,1.48770388 C3.69520455,2.49832039 0.00859090909,1.63732039 0.00859090909,1.63732039 C0.683056818,2.20802427 2.26788068,2.87761165 3.86479545,2.56808252 L3.86479545,2.56808252 L3.86479545,2.56808252 Z" opacity="0.1" fill="#000000"></path>
                                        </g>
                                    </g>
                                    <ellipse id="Oval" opacity="0.7" fill="url(#radialGradient-1)" cx="6.4246875" cy="7.0887233" rx="4.83875" ry="2.92926214"></ellipse>
                                    <g id="Laptop_3_" transform="translate(1.511364, 6.388350)">
                                        <g id="Base_3_" transform="translate(0.437500, 3.160194)">
                                            <path id="Shape" fill="#AFAFAF" d="M4.43593182,0.0971504854 L0.0174204545,0.0971504854 L0.0174204545,0.206432039 C0.0174204545,0.206432039 0.0328125,0.324038835 0.177585227,0.324038835 L4.43593182,0.324038835 L8.69415909,0.324038835 C8.83897159,0.324038835 8.86351136,0.206432039 8.86351136,0.206432039 L8.86351136,0.0971504854 L4.43593182,0.0971504854 L4.43593182,0.0971504854 L4.43593182,0.0971504854 Z"></path>
                                            <rect id="Rectangle-path" fill="#333333" x="0.465539773" y="0.0262669903" width="7.91668182" height="0.297771845"></rect>
                                            <path id="Shape" opacity="0.1" fill="#000000" d="M8.38222159,0.0262669903 L0.465539773,0.0262669903 L0.465539773,0.0971504854 L0.0174204545,0.0971504854 L0.0174204545,0.206432039 C0.0174204545,0.206432039 0.0209204545,0.245135922 0.0554034091,0.277213592 C0.062125,0.279252427 0.0645113636,0.281495146 0.0720681818,0.281495146 L8.79172159,0.281495146 C8.80226136,0.281495146 8.81586364,0.278199029 8.82465341,0.274393204 C8.85444318,0.242961165 8.86355114,0.206432039 8.86355114,0.206432039 L8.86355114,0.0971504854 L8.38222159,0.0971504854 L8.38222159,0.0262669903 L8.38222159,0.0262669903 L8.38222159,0.0262669903 Z"></path>
                                        </g>
                                        <g id="Lid_3_">
                                            <path d="M9.73115341,0.0429174757 C9.73377841,0.0225291262 9.70426705,0.0101941748 9.66517045,0.0101941748 L0.0735795455,0.0101941748 C0.0345227273,0.0101941748 0.00497159091,0.0225291262 0.00759659091,0.0429174757 L0.00775568182,0.0421019417 C0.00747727273,0.0439708738 0.00735795455,0.0447864078 0.00759659091,0.0466553398 L0.440403409,3.37298058 C0.443068182,3.39333495 0.474011364,3.4133835 0.509568182,3.4133835 L9.22922159,3.4133835 C9.26473864,3.4133835 9.29568182,3.39282524 9.29834659,3.37243689 L9.73115341,0.0476067961 C9.73143182,0.0457038835 9.73127273,0.0449563107 9.73095455,0.0431213592 L9.73115341,0.0429174757 L9.73115341,0.0429174757 L9.73115341,0.0429174757 Z" id="Shape" fill="#CCCCCC"></path>
                                            <g id="Logo_7_" transform="translate(3.738636, 1.495146)">
                                                <path id="Logo_9_" opacity="0.1" fill="#000000"></path>
                                                <path id="Logo_8_" fill="#FFFFFF"></path>
                                            </g>
                                            <path d="M0.509568182,3.41334951 L9.22922159,3.41334951 C9.26473864,3.41334951 9.29568182,3.39279126 9.29834659,3.37240291 L9.72908523,0.0718009709 C9.7216875,0.0570873786 9.69655114,0.0527038835 9.66517045,0.0527038835 L0.0735795455,0.0527038835 C0.0422386364,0.0527038835 0.0171022727,0.0550825243 0.00970454545,0.0697961165 L0.440443182,3.37651456 C0.443068182,3.39690291 0.474011364,3.41334951 0.509568182,3.41334951 L0.509568182,3.41334951 L0.509568182,3.41334951 Z" id="Shape" opacity="0.1" fill="#000000"></path>
                                        </g>
                                        <path d="M4.87343182,3.48423301 L8.81972159,3.48423301 L8.97014205,3.48423301 C7.85368182,3.08954854 6.4255625,2.85260194 4.86901705,2.85260194 C3.31239205,2.85260194 1.88427273,3.08954854 0.767772727,3.48423301 L0.903,3.48423301 L4.87343182,3.48423301 L4.87343182,3.48423301 L4.87343182,3.48423301 Z" id="Shape" opacity="0.1" fill="#000000"></path>
                                    </g>
                                    <path d="M6.38038068,9.38275243 C3.90269886,9.38275243 1.75027841,9.98291748 0.662494318,10.8644078 C0.560636364,11.5100728 0.5604375,11.9593301 0.5604375,11.9593301 C2.52755682,13.0958107 6.38073864,13.186165 6.38073864,13.186165 C6.38073864,13.186165 10.2345966,13.0956068 12.2010795,11.9593301 C12.2010795,11.9593301 12.2007614,11.5103786 12.0990625,10.8651214 C11.011517,9.98325728 8.85865909,9.38275243 6.38038068,9.38275243 L6.38038068,9.38275243 L6.38038068,9.38275243 Z" id="Belly_1_" fill="#B78563"></path>
                                    <g id="legs_2_" transform="translate(0.000000, 9.820388)">
                                        <g id="leg_5_">
                                            <path d="M3.962875,0.887606796 C3.962875,0.887572816 3.962875,0.887572816 3.96283523,0.887538835 C3.62890341,0.372019417 2.91840341,0.0160728155 2.09594318,0.0160728155 C0.952636364,0.0160728155 0.0258125,0.703737864 0.0258125,1.55196117 C0.0258125,2.29729126 0.735517045,2.97102427 1.66230114,3.09301456 C2.589125,3.21493689 4.39711364,3.20219417 4.39711364,3.20219417 C4.84113636,2.92470874 4.34266477,1.4640534 3.962875,0.887606796 L3.962875,0.887606796 L3.962875,0.887606796 Z" id="Shape" fill="#986844"></path>
                                            <g id="shadow_8_" transform="translate(0.000000, 0.033981)" fill="#895D3D">
                                                <path d="M2.09586364,3.08030583 C-0.498988636,1.76885922 1.65828409,0.017092233 1.65903977,0.0164805825 C0.725534091,0.165281553 0.0257329545,0.780975728 0.0257329545,1.51804854 C0.0257329545,2.26337864 0.7354375,2.93711165 1.66222159,3.05906796 C1.80611932,3.07802913 1.97129545,3.09369417 2.14760795,3.10667476 C2.13070455,3.09797573 2.11352273,3.08920874 2.09586364,3.08030583 L2.09586364,3.08030583 L2.09586364,3.08030583 Z" id="Shape"></path>
                                                <ellipse id="Oval" transform="translate(1.675255, 2.448083) rotate(-30.000728) translate(-1.675255, -2.448083) " cx="1.67525527" cy="2.4480835" rx="0.648678911" ry="0.61986015"></ellipse>
                                            </g>
                                            <g id="Group" transform="translate(0.795455, 1.766990)">
                                                <ellipse id="Oval" fill="#7A5336" transform="translate(0.962927, 0.842599) rotate(-30.000728) translate(-0.962927, -0.842599) " cx="0.962927318" cy="0.842599447" rx="0.648678911" ry="0.619826169"></ellipse>
                                                <ellipse id="Oval" fill="#AF7146" transform="translate(1.047901, 0.968425) rotate(-30.000728) translate(-1.047901, -0.968425) " cx="1.0479008" cy="0.968424854" rx="0.393224303" ry="0.375749014"></ellipse>
                                            </g>
                                        </g>
                                        <g id="leg_4_" transform="translate(8.232955, 0.000000)">
                                            <path d="M0.620215909,0.887606796 L0.620295455,0.887538835 C0.954227273,0.372019417 1.66472727,0.0160728155 2.48714773,0.0160728155 C3.63049432,0.0160728155 4.55731818,0.703737864 4.55731818,1.55196117 C4.55731818,2.29729126 3.84753409,2.97102427 2.92075,3.09301456 C1.99400568,3.21493689 0.185977273,3.20219417 0.185977273,3.20219417 C-0.258045455,2.92470874 0.240426136,1.4640534 0.620215909,0.887606796 L0.620215909,0.887606796 L0.620215909,0.887606796 Z" id="Shape" fill="#986844"></path>
                                            <g id="shadow_7_" transform="translate(1.948864, 0.033981)" fill="#895D3D">
                                                <path d="M0.538323864,3.08030583 C3.13317614,1.76885922 0.975903409,0.017092233 0.975107955,0.0164805825 C1.90865341,0.165281553 2.60841477,0.780975728 2.60841477,1.51804854 C2.60841477,2.26337864 1.89867045,2.93711165 0.971926136,3.05906796 C0.828028409,3.07802913 0.662852273,3.09369417 0.486539773,3.10667476 C0.503522727,3.09797573 0.520664773,3.08920874 0.538323864,3.08030583 L0.538323864,3.08030583 L0.538323864,3.08030583 Z" id="Shape"></path>
                                                <ellipse id="Oval" transform="translate(0.960046, 2.448941) rotate(210.000728) translate(-0.960046, -2.448941) " cx="0.960046182" cy="2.44894103" rx="0.648718684" ry="0.61986015"></ellipse>
                                            </g>
                                            <g id="Group" transform="translate(1.869318, 1.766990)">
                                                <ellipse id="Oval" fill="#7A5336" transform="translate(0.955473, 0.844131) rotate(210.000728) translate(-0.955473, -0.844131) " cx="0.955472716" cy="0.844131155" rx="0.648718684" ry="0.619894127"></ellipse>
                                                <ellipse id="Oval" fill="#AF7146" transform="translate(0.872005, 0.969389) rotate(210.000728) translate(-0.872005, -0.969389) " cx="0.872004716" cy="0.969389359" rx="0.393184532" ry="0.375715033"></ellipse>
                                            </g>
                                        </g>
                                    </g>
                                </g>
                                <g id="Group" transform="translate(9.784091, 10.466019)">
                                    <g id="Shape" transform="translate(0.119318, 2.378641)">
                                        <path d="M2.86363636,0.365868932 C2.86363636,0.433898058 2.83714773,0.509708738 2.75621023,0.509708738 L0.165613636,0.509708738 C0.0846761364,0.509708738 0,0.433898058 0,0.365868932 L0,0.119475728 C0,0.0514126214 0.0846761364,0 0.165613636,0 L2.75621023,0 C2.83714773,0 2.86363636,0.0514126214 2.86363636,0.119475728 L2.86363636,0.365868932 L2.86363636,0.365868932 L2.86363636,0.365868932 Z" fill="#CCCCCC"></path>
                                        <path d="M2.75621023,0 L1.90909091,0 L1.90909091,0.509708738 L2.75621023,0.509708738 C2.83714773,0.509708738 2.86363636,0.433898058 2.86363636,0.365868932 L2.86363636,0.119475728 C2.86363636,0.0514126214 2.83714773,0 2.75621023,0 L2.75621023,0 L2.75621023,0 Z" opacity="0.1" fill="#000000"></path>
                                    </g>
                                    <g id="Handle_1_" transform="translate(2.704545, 0.237864)">
                                        <path d="M0.373784091,2.06279126 C0.231,2.06279126 0.130892045,2.04688835 0.120948864,2.04525728 L0.1938125,1.72271359 C0.197590909,1.72332524 0.632704545,1.78979126 0.900693182,1.59946602 C1.05063636,1.49297087 1.12668182,1.31701942 1.12668182,1.07636893 C1.12668182,0.739179612 1.04192614,0.337223301 0.637994318,0.337223301 C0.405085227,0.337223301 0.312732955,0.427135922 0.311977273,0.428019417 L0.00278409091,0.23276699 C0.0226306818,0.209830097 0.209005682,0.00869902913 0.638034091,0.00869902913 C0.900613636,0.00869902913 1.51124432,0.112747573 1.51124432,1.07636893 C1.51124432,1.42045631 1.38775,1.68200485 1.14414205,1.8537767 C0.898465909,2.02704369 0.588119318,2.06275728 0.373784091,2.06279126 L0.373784091,2.06279126 L0.373784091,2.06279126 Z" id="Shape" fill="#DDDDDD"></path>
                                        <path d="M0.376926136,1.85119417 C0.551647727,1.85119417 0.799471591,1.82295631 0.987875,1.68917476 C1.17043182,1.55953883 1.26298295,1.35331068 1.26298295,1.07647087 C1.26298295,0.854067961 1.22802273,0.671728155 1.15905682,0.534480583 C1.02884091,0.275242718 0.803846591,0.220839806 0.637994318,0.220839806 C0.51975,0.220839806 0.414909091,0.240208738 0.326454545,0.278402913 C0.322039773,0.280305825 0.311022727,0.282242718 0.306806818,0.284213592 L0.278409091,0.270485437 L0.278409091,0.415276699 L0.305295455,0.428053398 C0.306090909,0.427169903 0.401744318,0.337257282 0.634693182,0.337257282 C1.03858523,0.337257282 1.12501136,0.739213592 1.12501136,1.07640291 C1.12501136,1.3170534 1.04311932,1.49300485 0.893215909,1.5995 C0.703102273,1.73450485 0.4375,1.74028155 0.278409091,1.73202427 L0.278409091,1.90444175 L0.297380682,1.84983495 C0.319693182,1.85082039 0.350795455,1.85119417 0.376926136,1.85119417 L0.376926136,1.85119417 L0.376926136,1.85119417 Z" id="Shape" opacity="0.1" fill="#000000"></path>
                                    </g>
                                    <g>
                                        <path d="M3.0625,2.65612621 C3.0625,2.72762136 3.0218125,2.78640777 2.94361932,2.78640777 L0.156306818,2.78640777 C0.0781136364,2.78640777 0,2.72762136 0,2.65612621 L0,0.121446602 C0,0.0499854369 0.0781136364,0 0.156306818,0 L2.94361932,0 C3.0218125,0 3.0625,0.0500194175 3.0625,0.121446602 L3.0625,2.65612621 L3.0625,2.65612621 L3.0625,2.65612621 Z" id="Shape" fill="#DDDDDD"></path>
                                        <path d="M0.532676136,1.13736408 L2.57719318,1.13736408 L2.57719318,1.72424272 L1.55495455,1.72424272 L1.55495455,1.81857282 L1.10106818,1.81857282 L1.10106818,1.72424272 L0.532676136,1.72424272 L0.532676136,1.13736408 L0.532676136,1.13736408 L0.532676136,1.13736408 Z M0.648414773,1.62467961 L0.874323864,1.62467961 L0.874323864,1.33142718 L0.987835227,1.33142718 L0.987835227,1.62467961 L1.10035227,1.62467961 L1.10035227,1.23685922 L0.648414773,1.23685922 L0.648414773,1.62467961 L0.648414773,1.62467961 L0.648414773,1.62467961 Z M1.21282955,1.23519417 L1.21418182,1.7242767 L1.43905682,1.7242767 L1.43905682,1.62671845 L1.66675568,1.62671845 L1.66675568,1.23519417 L1.21282955,1.23519417 L1.21282955,1.23519417 L1.21282955,1.23519417 Z M1.43635227,1.32949029 L1.55491477,1.32949029 L1.55491477,1.5286165 L1.43635227,1.5286165 L1.43635227,1.32949029 L1.43635227,1.32949029 L1.43635227,1.32949029 Z M1.78122159,1.23519417 L1.78122159,1.6229466 L2.00744886,1.6229466 L2.00744886,1.33183495 L2.1205625,1.33183495 L2.1205625,1.6229466 L2.23359659,1.6229466 L2.23359659,1.33299029 L2.34682955,1.33299029 L2.34682955,1.6229466 L2.46002273,1.6229466 L2.46002273,1.23519417 L1.78122159,1.23519417 L1.78122159,1.23519417 L1.78122159,1.23519417 Z" id="Rectangle_1_1_" fill="#CD3632"></path>
                                        <path d="M2.9500625,0 L2.10795455,0 L2.10795455,2.78640777 L2.9500625,2.78640777 C3.02964773,2.78640777 3.0625,2.73037379 3.0625,2.66237864 L3.0625,0.108737864 C3.0625,0.0406747573 3.02964773,0 2.9500625,0 L2.9500625,0 L2.9500625,0 Z" id="Shape" opacity="0.1" fill="#000000"></path>
                                    </g>
                                </g>
                                <g id="Group" transform="translate(6.204545, 11.111650)">
                                    <g id="Shape" transform="translate(1.272727, 2.378641)">
                                        <path d="M0,0.386427184 C0,0.454524272 0.0273636364,0.509708738 0.108380682,0.509708738 L2.70108523,0.509708738 C2.78210227,0.509708738 2.90344886,0.454524272 2.90344886,0.386427184 L2.90344886,0.139796117 C2.90344886,0.0716990291 2.78210227,0 2.70108523,0 L0.108380682,0 C0.0273636364,0 0,0.0716990291 0,0.139796117 L0,0.386427184 L0,0.386427184 L0,0.386427184 Z" fill="#B52C2C"></path>
                                        <path d="M0.108380682,0 L0.914772727,0 L0.914772727,0.509708738 L0.108380682,0.509708738 C0.0273636364,0.509708738 0,0.454524272 0,0.386427184 L0,0.139796117 C0,0.0716990291 0.0273636364,0 0.108380682,0 L0.108380682,0 L0.108380682,0 Z" opacity="0.1" fill="#000000"></path>
                                    </g>
                                    <g id="Handle_3_" transform="translate(0.000000, 0.237864)">
                                        <path d="M1.17806818,2.08297573 C1.32101136,2.08297573 1.42119886,2.0671068 1.43118182,2.06547573 L1.35819886,1.74262621 C1.35446023,1.74323786 0.918988636,1.80977184 0.650681818,1.6192767 C0.500659091,1.51271359 0.424573864,1.33662621 0.424573864,1.09577184 C0.424573864,0.75831068 0.509409091,0.356014563 0.913619318,0.356014563 C1.14676705,0.356014563 1.23919886,0.445961165 1.23995455,0.446878641 L1.54938636,0.251456311 C1.52953977,0.228519417 1.34304545,0.0272184466 0.913619318,0.0272184466 C0.650880682,0.0272184466 0.0397329545,0.131334951 0.0397329545,1.09573786 C0.0397329545,1.44016505 0.163346591,1.7018835 0.407153409,1.87379126 C0.652988636,2.04719417 0.963653409,2.08297573 1.17806818,2.08297573 L1.17806818,2.08297573 L1.17806818,2.08297573 Z" id="Shape" fill="#CD3632"></path>
                                        <path d="M1.17500568,1.87117476 C1.00016477,1.87117476 0.752102273,1.84293689 0.5635,1.7090534 C0.380823864,1.57931553 0.288193182,1.37291748 0.288193182,1.09587379 C0.288193182,0.87326699 0.323153409,0.690757282 0.392198864,0.553441748 C0.522534091,0.293966019 0.7476875,0.239495146 0.913619318,0.239495146 C1.03202273,0.239495146 1.13690341,0.258898058 1.22547727,0.297126214 C1.22989205,0.299063107 1.24047159,0.300966019 1.24464773,0.302936893 L1.2726875,0.289208738 L1.2726875,0.434135922 L1.24619886,0.446912621 C1.24540341,0.446029126 1.14986932,0.356048544 0.916761364,0.356048544 C0.512551136,0.356048544 0.426125,0.75834466 0.426125,1.09580583 C0.426125,1.33666019 0.507698864,1.51278155 0.657721591,1.61931068 C0.848073864,1.75441748 1.11363636,1.76019417 1.27272727,1.75197087 L1.27272727,1.92452427 L1.25423295,1.8698835 C1.23188068,1.87086893 1.20105682,1.87117476 1.17500568,1.87117476 L1.17500568,1.87117476 L1.17500568,1.87117476 Z" id="Shape" opacity="0.1" fill="#000000"></path>
                                    </g>
                                    <g transform="translate(1.193182, 0.000000)">
                                        <path d="M2.89867614,0 L0.127789773,0 C0.0482840909,0 0,0.0614708738 0,0.128650485 L0,2.69965534 C0,2.76686893 0.0482840909,2.82038835 0.127789773,2.82038835 L2.89867614,2.82038835 C2.97818182,2.82038835 3.02272727,2.76686893 3.02272727,2.69965534 L3.02272727,0.128650485 C3.02272727,0.0614368932 2.97818182,0 2.89867614,0 L2.89867614,0 Z" id="Shape" fill="#BE2B27"></path>
                                        <path d="M0.486460227,1.15659709 L2.53264773,1.15659709 L2.53264773,1.74395146 L1.50949432,1.74395146 L1.50949432,1.8383835 L1.05525,1.8383835 L1.05525,1.74395146 L0.486420455,1.74395146 L0.486420455,1.15659709 L0.486460227,1.15659709 L0.486460227,1.15659709 Z M0.602318182,1.64432039 L0.828386364,1.64432039 L0.828386364,1.35086408 L0.941977273,1.35086408 L0.941977273,1.64432039 L1.05461364,1.64432039 L1.05461364,1.25619417 L0.602318182,1.25619417 L0.602318182,1.64432039 L0.602318182,1.64432039 L0.602318182,1.64432039 Z M1.16721023,1.25449515 L1.1685625,1.74395146 L1.39363636,1.74395146 L1.39363636,1.64632524 L1.62149432,1.64632524 L1.62149432,1.25449515 L1.16721023,1.25449515 L1.16721023,1.25449515 L1.16721023,1.25449515 Z M1.39093182,1.3488932 L1.50953409,1.3488932 L1.50953409,1.54815534 L1.39093182,1.54815534 L1.39093182,1.3488932 L1.39093182,1.3488932 L1.39093182,1.3488932 Z M1.73596023,1.25449515 L1.73596023,1.64262136 L1.96242614,1.64262136 L1.96242614,1.35123786 L2.07565909,1.35123786 L2.07565909,1.64262136 L2.18877273,1.64262136 L2.18877273,1.3523932 L2.302125,1.3523932 L2.302125,1.64262136 L2.41539773,1.64262136 L2.41539773,1.25449515 L1.73596023,1.25449515 L1.73596023,1.25449515 L1.73596023,1.25449515 Z" id="Rectangle_1_3_" fill="#DDDDDD"></path>
                                        <path d="M0.1133125,0 L0.954545455,0 L0.954545455,2.78640777 L0.1133125,2.78640777 C0.0336477273,2.78640777 0,2.75093204 0,2.68283495 L0,0.127121359 C0,0.0589902913 0.0336477273,0 0.1133125,0 L0.1133125,0 L0.1133125,0 Z" id="Shape" opacity="0.1" fill="#000000"></path>
                                    </g>
                                </g>
                            </g>
                        </g>
                    </g>
                </g>
            </g>
        </g>
    </g>
</svg>